{"title":"Battleship.(2012).BRRip.480p.x264.Eng.AAC.5.1.AMX","uid":7502632,"size":1691023218,"categoryP":"video","categoryS":"movies","magnet":"?xt=urn:btih:be04a5612e8b15ac8db2a7e9a1030f6c4094c6a5&amp;dn=Battleship.%282012%29.BRRip.480p.x264.Eng.AAC.5.1.AMX&amp;tr=udp%3A%2F%2Ftracker.openbittorrent.com%3A80&amp;tr=udp%3A%2F%2Fopen.demonii.com%3A1337&amp;tr=udp%3A%2F%2Ftracker.coppersurfer.tk%3A6969&amp;tr=udp%3A%2F%2Fexodus.desync.com%3A6969","seeders":0,"leechers":0,"uploader":"Lawry1494","files":-1,"time":1344064916,"description":"General\nComplete name                            : Battleship.(2012).BRRip.480p.x264.Eng.AAC.5.1.AMX.mp4\nFormat                                   : MPEG-4\nFormat profile                           : Base Media\nCodec ID                                 : isom\nFile size                                : 1.57 GiB\nDuration                                 : 2h 11mn\nOverall bit rate mode                    : Variable\nOverall bit rate                         : 1 717 Kbps\n\nVideo\nID                                       : 1\nFormat                                   : AVC\nFormat/Info                              : Advanced Video Codec\nFormat profile                           : &lt;a class=&quot;__cf_email__&quot; href=&quot;/cdn-cgi/l/email-protection&quot; data-cfemail=&quot;c38baaa4ab838ff0edf3&quot;&gt;[email&amp;#160;protected]&lt;/a&gt;&lt;script cf-hash='f9e31' type=&quot;text/javascript&quot;&gt;\n/* &lt;![CDATA[ */!function(){try{var t=&quot;currentScript&quot;in document?document.currentScript:function(){for(var t=document.getElementsByTagName(&quot;script&quot;),e=t.length;e--;)if(t[e].getAttribute(&quot;cf-hash&quot;))return t[e]}();if(t&amp;&amp;t.previousSibling){var e,r,n,i,c=t.previousSibling,a=c.getAttribute(&quot;data-cfemail&quot;);if(a){for(e=&quot;&quot;,r=parseInt(a.substr(0,2),16),n=2;a.length-n;n+=2)i=parseInt(a.substr(n,2),16)^r,e+=String.fromCharCode(i);e=document.createTextNode(e),c.parentNode.replaceChild(e,c)}}}catch(u){}}();/* ]]&gt; */&lt;/script&gt;\nFormat settings, CABAC                   : Yes\nFormat settings, ReFrames                : 8 frames\nCodec ID                                 : avc1\nCodec ID/Info                            : Advanced Video Coding\nDuration                                 : 2h 11mn\nBit rate                                 : 1 377 Kbps\nMaximum bit rate                         : 7 696 Kbps\nWidth                                    : 720 pixels\nHeight                                   : 304 pixels\nDisplay aspect ratio                     : 2.35:1\nFrame rate mode                          : Constant\nFrame rate                               : 23.976 fps\nColor space                              : YUV\nChroma subsampling                       : 4:2:0\nBit depth                                : 8 bits\nScan type                                : Progressive\nBits/(Pixel*Frame)                       : 0.262\nStream size                              : 1.26 GiB (80%)\nWriting library                          : x264 core 125 r2208 d9d2288\n\nAudio\nID                                       : 2\nFormat                                   : AAC\nFormat/Info                              : Advanced Audio Codec\nFormat profile                           : LC\nCodec ID                                 : 40\nDuration                                 : 2h 11mn\nBit rate mode                            : Variable\nBit rate                                 : 336 Kbps\nMaximum bit rate                         : 402 Kbps\nChannel(s)                               : 6 channels\nChannel positions                        : Front: L C R, Side: L R, LFE\nSampling rate                            : 48.0 KHz\nCompression mode                         : Lossy\nStream size                              : 315 MiB (20%)\nLanguage                                 : English\n","torrent":{"xt":"urn:btih:be04a5612e8b15ac8db2a7e9a1030f6c4094c6a5","amp;dn":"Battleship.%282012%29.BRRip.480p.x264.Eng.AAC.5.1.AMX","amp;tr":["udp%3A%2F%2Ftracker.openbittorrent.com%3A80","udp%3A%2F%2Fopen.demonii.com%3A1337","udp%3A%2F%2Ftracker.coppersurfer.tk%3A6969","udp%3A%2F%2Fexodus.desync.com%3A6969"],"infoHash":"be04a5612e8b15ac8db2a7e9a1030f6c4094c6a5","infoHashBuffer":{"type":"Buffer","data":[190,4,165,97,46,139,21,172,141,178,167,233,161,3,15,108,64,148,198,165]},"announce":[],"urlList":[]}}